<svg width="681" height="255" viewBox="0 0 681 255" fill="none" xmlns="http://www.w3.org/2000/svg">
<g clip-path="url(#clip0_901_2)">
<path d="M247 63.9165L247 194.412C244.876 200.804 239.476 203.734 237.041 204.4L128.162 255L120.195 255C84.3443 238.355 12.1119 204.932 9.98729 204.4C1.48933 199.073 -0.192587 192.415 0.0289402 189.752C0.250082 147.807 0.559981 63.9165 0.0289292 63.9165C-0.502504 56.9921 6.44629 51.7102 9.98727 49.9348L120.195 1.10857e-05L128.162 1.03892e-05C164.012 16.201 235.979 48.8696 237.041 49.9348C245.008 54.196 247 61.0312 247 63.9165Z" fill="black"/>
<path d="M226.419 139.091L227.083 187.755L127.498 233.029L120.859 233.029L19.946 188.42L19.946 139.091L86.8359 139.091L77.1875 167.071L99.7965 167.115L125.43 88.8637L102.273 88.8637L92.625 115.909L19.946 115.909L19.946 65.9141L120.859 21.3057L127.498 21.3057L226.419 65.914L227.083 115.909L158.234 115.909L165.953 88.5511L141.44 88.5511L115.781 167.115L141.44 167.071L150.516 139.091L226.419 139.091Z" fill="#FFB94A"/>
<path d="M226.419 139.091L227.083 187.755L127.498 233.029L120.859 233.029L19.946 188.42L19.946 139.091L86.8359 139.091L77.1875 167.071L99.7965 167.115L125.43 88.8637L102.273 88.8637L92.625 115.909L19.946 115.909L19.946 65.9141L120.859 21.3057L127.498 21.3057L226.419 65.914L227.083 115.909L158.234 115.909L165.953 88.5511L141.44 88.5511L115.781 167.115L141.44 167.071L150.516 139.091L226.419 139.091Z" stroke="black"/>
</g>
<path d="M285.024 104.184V91.368C285.024 88.68 286.368 87.336 289.056 87.336H344.928C347.616 87.336 348.96 88.68 348.96 91.368V104.184C348.96 106.968 347.616 108.36 344.928 108.36H328.656V184.968C328.656 187.656 327.312 189 324.624 189H309.504C306.816 189 305.472 187.656 305.472 184.968V108.36H289.056C286.368 108.36 285.024 106.968 285.024 104.184ZM355.196 104.184V91.368C355.196 88.68 356.54 87.336 359.228 87.336H415.1C417.788 87.336 419.132 88.68 419.132 91.368V104.184C419.132 106.968 417.788 108.36 415.1 108.36H398.828V184.968C398.828 187.656 397.484 189 394.796 189H379.676C376.988 189 375.644 187.656 375.644 184.968V108.36H359.228C356.54 108.36 355.196 106.968 355.196 104.184ZM515.864 146.952H486.2V168.696H518.024C520.712 168.696 522.056 170.04 522.056 172.728V184.968C522.056 187.656 520.712 189 518.024 189H467.336C464.648 189 463.304 187.656 463.304 184.968V91.368C463.304 88.68 464.648 87.336 467.336 87.336H517.448C520.136 87.336 521.48 88.68 521.48 91.368V103.608C521.48 106.296 520.136 107.64 517.448 107.64H486.2V127.512H515.864C518.456 127.512 519.752 128.856 519.752 131.544V143.064C519.752 145.656 518.456 146.952 515.864 146.952ZM557.925 91.368V167.976H585.861C588.549 167.976 589.893 169.32 589.893 172.008V184.968C589.893 187.656 588.549 189 585.861 189H538.773C536.085 189 534.741 187.656 534.741 184.968V91.368C534.741 88.68 536.085 87.336 538.773 87.336H553.893C556.581 87.336 557.925 88.68 557.925 91.368ZM632.197 189H606.133C603.445 189 602.101 187.656 602.101 184.968V91.368C602.101 88.68 603.445 87.336 606.133 87.336H631.909C646.693 87.336 657.541 91.176 664.453 98.856C671.461 106.44 674.965 119.352 674.965 137.592C674.965 156.408 671.509 169.704 664.597 177.48C657.781 185.16 646.981 189 632.197 189ZM631.333 108.072H625.285V168.408H631.621C638.629 168.408 643.669 166.248 646.741 161.928C649.909 157.608 651.493 149.496 651.493 137.592C651.493 126.168 649.909 118.392 646.741 114.264C643.573 110.136 638.437 108.072 631.333 108.072Z" fill="black"/>
<defs>
<clipPath id="clip0_901_2">
<rect width="247" height="255" fill="white" transform="translate(247 255) rotate(180)"/>
</clipPath>
</defs>
</svg>
